<mxfile host="Electron" agent="Mozilla/5.0 (Windows NT 10.0; Win64; x64) AppleWebKit/537.36 (KHTML, like Gecko) draw.io/22.1.2 Chrome/114.0.5735.289 Electron/25.9.4 Safari/537.36" modified="2024-10-14T18:16:50.330Z" version="22.1.2" etag="T9dlZvOhwoI0b4Pqe_Ir" type="device">
  <diagram name="Page-1" id="IdYIQHr3beaqZKcTw_ym">
    <mxGraphModel dx="2066" dy="601" grid="1" gridSize="10" guides="1" tooltips="1" connect="1" arrows="1" fold="1" page="1" pageScale="1" pageWidth="850" pageHeight="1100" math="0" shadow="0">
      <root>
        <mxCell id="0" />
        <mxCell id="1" parent="0" />
        <mxCell id="0ZBUqz-HQCsgIAGltMwB-1" value="Интернет" style="ellipse;shape=cloud;whiteSpace=wrap;html=1;" parent="1" vertex="1">
          <mxGeometry x="-50" y="290" width="120" height="80" as="geometry" />
        </mxCell>
        <mxCell id="0ZBUqz-HQCsgIAGltMwB-2" value="" style="endArrow=classic;html=1;rounded=0;exitX=0.88;exitY=0.25;exitDx=0;exitDy=0;exitPerimeter=0;" parent="1" source="0ZBUqz-HQCsgIAGltMwB-1" edge="1">
          <mxGeometry width="50" height="50" relative="1" as="geometry">
            <mxPoint x="180" y="340" as="sourcePoint" />
            <mxPoint x="110" y="270" as="targetPoint" />
          </mxGeometry>
        </mxCell>
        <mxCell id="0ZBUqz-HQCsgIAGltMwB-3" value="" style="endArrow=classic;html=1;rounded=0;entryX=0.96;entryY=0.7;entryDx=0;entryDy=0;entryPerimeter=0;" parent="1" target="0ZBUqz-HQCsgIAGltMwB-1" edge="1">
          <mxGeometry width="50" height="50" relative="1" as="geometry">
            <mxPoint x="80" y="390" as="sourcePoint" />
            <mxPoint x="240" y="350" as="targetPoint" />
          </mxGeometry>
        </mxCell>
        <mxCell id="0ZBUqz-HQCsgIAGltMwB-5" value="" style="swimlane;startSize=0;" parent="1" vertex="1">
          <mxGeometry x="110" y="160" width="570" height="340" as="geometry" />
        </mxCell>
        <mxCell id="0ZBUqz-HQCsgIAGltMwB-6" value="Внутреняя сеть" style="rounded=0;whiteSpace=wrap;html=1;" parent="1" vertex="1">
          <mxGeometry x="710" y="300" width="120" height="60" as="geometry" />
        </mxCell>
        <mxCell id="0ZBUqz-HQCsgIAGltMwB-7" value="" style="endArrow=classic;html=1;rounded=0;exitX=1.001;exitY=0.441;exitDx=0;exitDy=0;exitPerimeter=0;entryX=0.004;entryY=0.164;entryDx=0;entryDy=0;entryPerimeter=0;" parent="1" source="0ZBUqz-HQCsgIAGltMwB-5" target="0ZBUqz-HQCsgIAGltMwB-6" edge="1">
          <mxGeometry width="50" height="50" relative="1" as="geometry">
            <mxPoint x="176" y="320" as="sourcePoint" />
            <mxPoint x="220" y="320" as="targetPoint" />
          </mxGeometry>
        </mxCell>
        <mxCell id="0ZBUqz-HQCsgIAGltMwB-8" value="" style="endArrow=classic;html=1;rounded=0;" parent="1" edge="1">
          <mxGeometry width="50" height="50" relative="1" as="geometry">
            <mxPoint x="710" y="350" as="sourcePoint" />
            <mxPoint x="680" y="350" as="targetPoint" />
          </mxGeometry>
        </mxCell>
        <mxCell id="ZUYGOq5iDEblx65YCfR9-3" value="Модуль захвата трафика" style="rounded=0;whiteSpace=wrap;html=1;" vertex="1" parent="1">
          <mxGeometry x="130" y="660" width="120" height="60" as="geometry" />
        </mxCell>
        <mxCell id="ZUYGOq5iDEblx65YCfR9-4" value="Модуль декодирования" style="rounded=0;whiteSpace=wrap;html=1;" vertex="1" parent="1">
          <mxGeometry x="300" y="660" width="120" height="60" as="geometry" />
        </mxCell>
        <mxCell id="ZUYGOq5iDEblx65YCfR9-2" value="Модуль анализа аномалий" style="rounded=0;whiteSpace=wrap;html=1;" vertex="1" parent="1">
          <mxGeometry x="470" y="560" width="120" height="60" as="geometry" />
        </mxCell>
        <mxCell id="ZUYGOq5iDEblx65YCfR9-5" value="Модуль потоковой сборки" style="rounded=0;whiteSpace=wrap;html=1;" vertex="1" parent="1">
          <mxGeometry x="470" y="660" width="120" height="60" as="geometry" />
        </mxCell>
        <mxCell id="ZUYGOq5iDEblx65YCfR9-7" value="Модуль предотвращения атак" style="rounded=0;whiteSpace=wrap;html=1;" vertex="1" parent="1">
          <mxGeometry x="640" y="710" width="120" height="60" as="geometry" />
        </mxCell>
        <mxCell id="ZUYGOq5iDEblx65YCfR9-6" value="Модуль записи и логирования" style="rounded=0;whiteSpace=wrap;html=1;" vertex="1" parent="1">
          <mxGeometry x="640" y="610" width="120" height="60" as="geometry" />
        </mxCell>
        <mxCell id="ZUYGOq5iDEblx65YCfR9-1" value="Модуль анализа сигнатур" style="rounded=0;whiteSpace=wrap;html=1;" vertex="1" parent="1">
          <mxGeometry x="470" y="760" width="120" height="60" as="geometry" />
        </mxCell>
        <mxCell id="ZUYGOq5iDEblx65YCfR9-9" value="" style="endArrow=classic;html=1;rounded=0;" edge="1" parent="1">
          <mxGeometry width="50" height="50" relative="1" as="geometry">
            <mxPoint x="250" y="690" as="sourcePoint" />
            <mxPoint x="300" y="689.71" as="targetPoint" />
          </mxGeometry>
        </mxCell>
        <mxCell id="ZUYGOq5iDEblx65YCfR9-10" value="" style="endArrow=classic;html=1;rounded=0;" edge="1" parent="1">
          <mxGeometry width="50" height="50" relative="1" as="geometry">
            <mxPoint x="420" y="690" as="sourcePoint" />
            <mxPoint x="470" y="689.71" as="targetPoint" />
          </mxGeometry>
        </mxCell>
        <mxCell id="ZUYGOq5iDEblx65YCfR9-11" value="" style="endArrow=classic;html=1;rounded=0;exitX=1;exitY=0.5;exitDx=0;exitDy=0;entryX=0;entryY=0.5;entryDx=0;entryDy=0;" edge="1" parent="1" source="ZUYGOq5iDEblx65YCfR9-1" target="ZUYGOq5iDEblx65YCfR9-6">
          <mxGeometry width="50" height="50" relative="1" as="geometry">
            <mxPoint x="590" y="690" as="sourcePoint" />
            <mxPoint x="640" y="689.71" as="targetPoint" />
          </mxGeometry>
        </mxCell>
        <mxCell id="ZUYGOq5iDEblx65YCfR9-12" value="" style="endArrow=classic;html=1;rounded=0;exitX=0.5;exitY=0;exitDx=0;exitDy=0;entryX=0.5;entryY=1;entryDx=0;entryDy=0;" edge="1" parent="1" source="ZUYGOq5iDEblx65YCfR9-5" target="ZUYGOq5iDEblx65YCfR9-2">
          <mxGeometry width="50" height="50" relative="1" as="geometry">
            <mxPoint x="520" y="680" as="sourcePoint" />
            <mxPoint x="570" y="630" as="targetPoint" />
          </mxGeometry>
        </mxCell>
        <mxCell id="ZUYGOq5iDEblx65YCfR9-13" value="" style="endArrow=classic;html=1;rounded=0;exitX=0.5;exitY=1;exitDx=0;exitDy=0;entryX=0.5;entryY=0;entryDx=0;entryDy=0;" edge="1" parent="1" source="ZUYGOq5iDEblx65YCfR9-5" target="ZUYGOq5iDEblx65YCfR9-1">
          <mxGeometry width="50" height="50" relative="1" as="geometry">
            <mxPoint x="430" y="780" as="sourcePoint" />
            <mxPoint x="480" y="730" as="targetPoint" />
          </mxGeometry>
        </mxCell>
        <mxCell id="ZUYGOq5iDEblx65YCfR9-14" value="" style="endArrow=classic;html=1;rounded=0;exitX=1;exitY=0.5;exitDx=0;exitDy=0;entryX=0;entryY=0.5;entryDx=0;entryDy=0;" edge="1" parent="1" source="ZUYGOq5iDEblx65YCfR9-1" target="ZUYGOq5iDEblx65YCfR9-7">
          <mxGeometry width="50" height="50" relative="1" as="geometry">
            <mxPoint x="560" y="880" as="sourcePoint" />
            <mxPoint x="610" y="830" as="targetPoint" />
          </mxGeometry>
        </mxCell>
        <mxCell id="ZUYGOq5iDEblx65YCfR9-16" value="" style="endArrow=classic;html=1;rounded=0;exitX=1;exitY=0.5;exitDx=0;exitDy=0;" edge="1" parent="1" source="ZUYGOq5iDEblx65YCfR9-2">
          <mxGeometry width="50" height="50" relative="1" as="geometry">
            <mxPoint x="620" y="610" as="sourcePoint" />
            <mxPoint x="640" y="640" as="targetPoint" />
          </mxGeometry>
        </mxCell>
        <mxCell id="ZUYGOq5iDEblx65YCfR9-17" value="" style="endArrow=classic;html=1;rounded=0;exitX=1;exitY=0.5;exitDx=0;exitDy=0;entryX=0;entryY=0.5;entryDx=0;entryDy=0;" edge="1" parent="1" source="ZUYGOq5iDEblx65YCfR9-2" target="ZUYGOq5iDEblx65YCfR9-7">
          <mxGeometry width="50" height="50" relative="1" as="geometry">
            <mxPoint x="600" y="600" as="sourcePoint" />
            <mxPoint x="650" y="650" as="targetPoint" />
          </mxGeometry>
        </mxCell>
      </root>
    </mxGraphModel>
  </diagram>
</mxfile>
